%TF.GenerationSoftware,KiCad,Pcbnew,(6.0.4)*%
%TF.CreationDate,2022-07-16T18:09:19+02:00*%
%TF.ProjectId,AirlabMuxAtmel,4169726c-6162-44d7-9578-41746d656c2e,rev?*%
%TF.SameCoordinates,Original*%
%TF.FileFunction,Paste,Top*%
%TF.FilePolarity,Positive*%
%FSLAX46Y46*%
G04 Gerber Fmt 4.6, Leading zero omitted, Abs format (unit mm)*
G04 Created by KiCad (PCBNEW (6.0.4)) date 2022-07-16 18:09:19*
%MOMM*%
%LPD*%
G01*
G04 APERTURE LIST*
%ADD10C,0.010000*%
%ADD11R,0.800000X0.950000*%
%ADD12R,1.500000X0.550000*%
%ADD13R,0.550000X1.500000*%
%ADD14R,1.000000X0.900000*%
%ADD15O,0.950000X0.300000*%
%ADD16O,0.300000X0.950000*%
G04 APERTURE END LIST*
%TO.C,IC3*%
G36*
X97490000Y-68045350D02*
G01*
X95784650Y-68045350D01*
X95784650Y-66340000D01*
X97490000Y-66340000D01*
X97490000Y-68045350D01*
G37*
D10*
X97490000Y-68045350D02*
X95784650Y-68045350D01*
X95784650Y-66340000D01*
X97490000Y-66340000D01*
X97490000Y-68045350D01*
G36*
X99790000Y-65739832D02*
G01*
X98090168Y-65739832D01*
X98090168Y-64040000D01*
X99790000Y-64040000D01*
X99790000Y-65739832D01*
G37*
X99790000Y-65739832D02*
X98090168Y-65739832D01*
X98090168Y-64040000D01*
X99790000Y-64040000D01*
X99790000Y-65739832D01*
G36*
X99790000Y-68044570D02*
G01*
X98090685Y-68044570D01*
X98090685Y-66340000D01*
X99790000Y-66340000D01*
X99790000Y-68044570D01*
G37*
X99790000Y-68044570D02*
X98090685Y-68044570D01*
X98090685Y-66340000D01*
X99790000Y-66340000D01*
X99790000Y-68044570D01*
G36*
X97490000Y-65739025D02*
G01*
X95783500Y-65739025D01*
X95783500Y-64040000D01*
X97490000Y-64040000D01*
X97490000Y-65739025D01*
G37*
X97490000Y-65739025D02*
X95783500Y-65739025D01*
X95783500Y-64040000D01*
X97490000Y-64040000D01*
X97490000Y-65739025D01*
%TD*%
D11*
%TO.C,R1*%
X111594000Y-54102000D03*
X109894000Y-54102000D03*
%TD*%
D12*
%TO.C,IC1*%
X92090000Y-62040000D03*
X92090000Y-62840000D03*
X92090000Y-63640000D03*
X92090000Y-64440000D03*
X92090000Y-65240000D03*
X92090000Y-66040000D03*
X92090000Y-66840000D03*
X92090000Y-67640000D03*
X92090000Y-68440000D03*
X92090000Y-69240000D03*
X92090000Y-70040000D03*
D13*
X93790000Y-71740000D03*
X94590000Y-71740000D03*
X95390000Y-71740000D03*
X96190000Y-71740000D03*
X96990000Y-71740000D03*
X97790000Y-71740000D03*
X98590000Y-71740000D03*
X99390000Y-71740000D03*
X100190000Y-71740000D03*
X100990000Y-71740000D03*
X101790000Y-71740000D03*
D12*
X103490000Y-70040000D03*
X103490000Y-69240000D03*
X103490000Y-68440000D03*
X103490000Y-67640000D03*
X103490000Y-66840000D03*
X103490000Y-66040000D03*
X103490000Y-65240000D03*
X103490000Y-64440000D03*
X103490000Y-63640000D03*
X103490000Y-62840000D03*
X103490000Y-62040000D03*
D13*
X101790000Y-60340000D03*
X100990000Y-60340000D03*
X100190000Y-60340000D03*
X99390000Y-60340000D03*
X98590000Y-60340000D03*
X97790000Y-60340000D03*
X96990000Y-60340000D03*
X96190000Y-60340000D03*
X95390000Y-60340000D03*
X94590000Y-60340000D03*
X93790000Y-60340000D03*
%TD*%
D14*
%TO.C,C3*%
X96940000Y-57912000D03*
X98640000Y-57912000D03*
%TD*%
%TO.C,C2*%
X100164000Y-74422000D03*
X98464000Y-74422000D03*
%TD*%
D15*
%TO.C,IC3*%
X94390000Y-63540000D03*
X94390000Y-64040000D03*
X94390000Y-64540000D03*
X94390000Y-65040000D03*
X94390000Y-65540000D03*
X94390000Y-66040000D03*
X94390000Y-66540000D03*
X94390000Y-67040000D03*
X94390000Y-67540000D03*
X94390000Y-68040000D03*
X94390000Y-68540000D03*
D16*
X95290000Y-69440000D03*
X95790000Y-69440000D03*
X96290000Y-69440000D03*
X96790000Y-69440000D03*
X97290000Y-69440000D03*
X97790000Y-69440000D03*
X98290000Y-69440000D03*
X98790000Y-69440000D03*
X99290000Y-69440000D03*
X99790000Y-69440000D03*
X100290000Y-69440000D03*
D15*
X101190000Y-68540000D03*
X101190000Y-68040000D03*
X101190000Y-67540000D03*
X101190000Y-67040000D03*
X101190000Y-66540000D03*
X101190000Y-66040000D03*
X101190000Y-65540000D03*
X101190000Y-65040000D03*
X101190000Y-64540000D03*
X101190000Y-64040000D03*
X101190000Y-63540000D03*
D16*
X100290000Y-62640000D03*
X99790000Y-62640000D03*
X99290000Y-62640000D03*
X98790000Y-62640000D03*
X98290000Y-62640000D03*
X97790000Y-62640000D03*
X97290000Y-62640000D03*
X96790000Y-62640000D03*
X96290000Y-62640000D03*
X95790000Y-62640000D03*
X95290000Y-62640000D03*
%TD*%
M02*
