%TF.GenerationSoftware,KiCad,Pcbnew,(6.0.4)*%
%TF.CreationDate,2022-07-16T18:09:19+02:00*%
%TF.ProjectId,AirlabMuxAtmel,4169726c-6162-44d7-9578-41746d656c2e,rev?*%
%TF.SameCoordinates,Original*%
%TF.FileFunction,Soldermask,Top*%
%TF.FilePolarity,Negative*%
%FSLAX46Y46*%
G04 Gerber Fmt 4.6, Leading zero omitted, Abs format (unit mm)*
G04 Created by KiCad (PCBNEW (6.0.4)) date 2022-07-16 18:09:19*
%MOMM*%
%LPD*%
G01*
G04 APERTURE LIST*
G04 Aperture macros list*
%AMRoundRect*
0 Rectangle with rounded corners*
0 $1 Rounding radius*
0 $2 $3 $4 $5 $6 $7 $8 $9 X,Y pos of 4 corners*
0 Add a 4 corners polygon primitive as box body*
4,1,4,$2,$3,$4,$5,$6,$7,$8,$9,$2,$3,0*
0 Add four circle primitives for the rounded corners*
1,1,$1+$1,$2,$3*
1,1,$1+$1,$4,$5*
1,1,$1+$1,$6,$7*
1,1,$1+$1,$8,$9*
0 Add four rect primitives between the rounded corners*
20,1,$1+$1,$2,$3,$4,$5,0*
20,1,$1+$1,$4,$5,$6,$7,0*
20,1,$1+$1,$6,$7,$8,$9,0*
20,1,$1+$1,$8,$9,$2,$3,0*%
G04 Aperture macros list end*
%ADD10R,0.800000X0.950000*%
%ADD11R,1.500000X0.550000*%
%ADD12R,0.550000X1.500000*%
%ADD13R,1.000000X0.900000*%
%ADD14O,0.950000X0.300000*%
%ADD15O,0.300000X0.950000*%
%ADD16RoundRect,1.350000X-1.150000X-1.150000X1.150000X-1.150000X1.150000X1.150000X-1.150000X1.150000X0*%
%ADD17C,1.700000*%
%ADD18R,1.422400X1.422400*%
%ADD19C,1.422400*%
G04 APERTURE END LIST*
D10*
%TO.C,R1*%
X111594000Y-54102000D03*
X109894000Y-54102000D03*
%TD*%
D11*
%TO.C,IC1*%
X92090000Y-62040000D03*
X92090000Y-62840000D03*
X92090000Y-63640000D03*
X92090000Y-64440000D03*
X92090000Y-65240000D03*
X92090000Y-66040000D03*
X92090000Y-66840000D03*
X92090000Y-67640000D03*
X92090000Y-68440000D03*
X92090000Y-69240000D03*
X92090000Y-70040000D03*
D12*
X93790000Y-71740000D03*
X94590000Y-71740000D03*
X95390000Y-71740000D03*
X96190000Y-71740000D03*
X96990000Y-71740000D03*
X97790000Y-71740000D03*
X98590000Y-71740000D03*
X99390000Y-71740000D03*
X100190000Y-71740000D03*
X100990000Y-71740000D03*
X101790000Y-71740000D03*
D11*
X103490000Y-70040000D03*
X103490000Y-69240000D03*
X103490000Y-68440000D03*
X103490000Y-67640000D03*
X103490000Y-66840000D03*
X103490000Y-66040000D03*
X103490000Y-65240000D03*
X103490000Y-64440000D03*
X103490000Y-63640000D03*
X103490000Y-62840000D03*
X103490000Y-62040000D03*
D12*
X101790000Y-60340000D03*
X100990000Y-60340000D03*
X100190000Y-60340000D03*
X99390000Y-60340000D03*
X98590000Y-60340000D03*
X97790000Y-60340000D03*
X96990000Y-60340000D03*
X96190000Y-60340000D03*
X95390000Y-60340000D03*
X94590000Y-60340000D03*
X93790000Y-60340000D03*
%TD*%
D13*
%TO.C,C3*%
X96940000Y-57912000D03*
X98640000Y-57912000D03*
%TD*%
%TO.C,C2*%
X100164000Y-74422000D03*
X98464000Y-74422000D03*
%TD*%
D14*
%TO.C,IC3*%
X94390000Y-63540000D03*
X94390000Y-64040000D03*
X94390000Y-64540000D03*
X94390000Y-65040000D03*
X94390000Y-65540000D03*
X94390000Y-66040000D03*
X94390000Y-66540000D03*
X94390000Y-67040000D03*
X94390000Y-67540000D03*
X94390000Y-68040000D03*
X94390000Y-68540000D03*
D15*
X95290000Y-69440000D03*
X95790000Y-69440000D03*
X96290000Y-69440000D03*
X96790000Y-69440000D03*
X97290000Y-69440000D03*
X97790000Y-69440000D03*
X98290000Y-69440000D03*
X98790000Y-69440000D03*
X99290000Y-69440000D03*
X99790000Y-69440000D03*
X100290000Y-69440000D03*
D14*
X101190000Y-68540000D03*
X101190000Y-68040000D03*
X101190000Y-67540000D03*
X101190000Y-67040000D03*
X101190000Y-66540000D03*
X101190000Y-66040000D03*
X101190000Y-65540000D03*
X101190000Y-65040000D03*
X101190000Y-64540000D03*
X101190000Y-64040000D03*
X101190000Y-63540000D03*
D15*
X100290000Y-62640000D03*
X99790000Y-62640000D03*
X99290000Y-62640000D03*
X98790000Y-62640000D03*
X98290000Y-62640000D03*
X97790000Y-62640000D03*
X97290000Y-62640000D03*
X96790000Y-62640000D03*
X96290000Y-62640000D03*
X95790000Y-62640000D03*
X95290000Y-62640000D03*
D16*
X97790000Y-66040000D03*
%TD*%
D17*
%TO.C,P1*%
X107950000Y-61595000D03*
X110490000Y-61595000D03*
X107950000Y-64135000D03*
X110490000Y-64135000D03*
X107950000Y-66675000D03*
X110490000Y-66675000D03*
%TD*%
D18*
%TO.C,IC2*%
X97790000Y-53975000D03*
D19*
X97790000Y-56515000D03*
X95250000Y-53975000D03*
X95250000Y-56515000D03*
X92710000Y-53975000D03*
X92710000Y-56515000D03*
X90170000Y-53975000D03*
X90170000Y-56515000D03*
X87630000Y-53975000D03*
X85090000Y-56515000D03*
X87630000Y-56515000D03*
X85090000Y-59055000D03*
X87630000Y-59055000D03*
X85090000Y-61595000D03*
X87630000Y-61595000D03*
X85090000Y-64135000D03*
X87630000Y-64135000D03*
X85090000Y-66675000D03*
X87630000Y-66675000D03*
X85090000Y-69215000D03*
X87630000Y-69215000D03*
X85090000Y-71755000D03*
X87630000Y-71755000D03*
X85090000Y-74295000D03*
X87630000Y-74295000D03*
X85090000Y-76835000D03*
X87630000Y-79375000D03*
X87630000Y-76835000D03*
X90170000Y-79375000D03*
X90170000Y-76835000D03*
X92710000Y-79375000D03*
X92710000Y-76835000D03*
X95250000Y-79375000D03*
X95250000Y-76835000D03*
X97790000Y-79375000D03*
X97790000Y-76835000D03*
X100330000Y-79375000D03*
X100330000Y-76835000D03*
X102870000Y-79375000D03*
X102870000Y-76835000D03*
X105410000Y-79375000D03*
X105410000Y-76835000D03*
X107950000Y-79375000D03*
X110490000Y-76835000D03*
X107950000Y-76835000D03*
X110490000Y-74295000D03*
X107950000Y-74295000D03*
X110490000Y-71755000D03*
X107950000Y-71755000D03*
X110490000Y-69215000D03*
X107950000Y-69215000D03*
X110490000Y-59055000D03*
X107950000Y-59055000D03*
X110490000Y-56515000D03*
X107950000Y-53975000D03*
X107950000Y-56515000D03*
X105410000Y-53975000D03*
X105410000Y-56515000D03*
X102870000Y-53975000D03*
X102870000Y-56515000D03*
X100330000Y-53975000D03*
X100330000Y-56515000D03*
%TD*%
M02*
