M48
; DRILL file {KiCad (6.0.4)} date Sat Jul 16 18:09:12 2022
; FORMAT={-:-/ absolute / inch / decimal}
; #@! TF.CreationDate,2022-07-16T18:09:12+02:00
; #@! TF.GenerationSoftware,Kicad,Pcbnew,(6.0.4)
; #@! TF.FileFunction,Plated,1,2,PTH
FMAT,2
INCH
; #@! TA.AperFunction,Plated,PTH,ViaDrill
T1C0.0157
; #@! TA.AperFunction,Plated,PTH,ComponentDrill
T2C0.0315
; #@! TA.AperFunction,Plated,PTH,ComponentDrill
T3C0.0354
%
G90
G05
T1
X3.5Y-2.6647
X3.525Y-2.845
X3.5285Y-2.4723
X3.5751Y-2.8499
X3.6Y-2.9666
X3.63Y-2.855
X3.79Y-2.535
X3.79Y-2.6
X3.79Y-2.665
X3.85Y-2.535
X3.85Y-2.6
X3.85Y-2.665
X3.91Y-2.535
X3.91Y-2.6
X3.91Y-2.665
X3.915Y-2.885
X4.005Y-2.935
X4.0782Y-2.2777
X4.1091Y-2.4303
X4.1102Y-2.569
X4.1104Y-2.4719
X4.1104Y-2.6004
X4.1121Y-2.5059
X4.1153Y-2.2828
X4.165Y-2.755
T2
X3.35Y-2.225
X3.35Y-2.325
X3.35Y-2.425
X3.35Y-2.525
X3.35Y-2.625
X3.35Y-2.725
X3.35Y-2.825
X3.35Y-2.925
X3.35Y-3.025
X3.45Y-2.125
X3.45Y-2.225
X3.45Y-2.325
X3.45Y-2.425
X3.45Y-2.525
X3.45Y-2.625
X3.45Y-2.725
X3.45Y-2.825
X3.45Y-2.925
X3.45Y-3.025
X3.45Y-3.125
X3.55Y-2.125
X3.55Y-2.225
X3.55Y-3.025
X3.55Y-3.125
X3.65Y-2.125
X3.65Y-2.225
X3.65Y-3.025
X3.65Y-3.125
X3.75Y-2.125
X3.75Y-2.225
X3.75Y-3.025
X3.75Y-3.125
X3.85Y-2.125
X3.85Y-2.225
X3.85Y-3.025
X3.85Y-3.125
X3.95Y-2.125
X3.95Y-2.225
X3.95Y-3.025
X3.95Y-3.125
X4.05Y-2.125
X4.05Y-2.225
X4.05Y-3.025
X4.05Y-3.125
X4.15Y-2.125
X4.15Y-2.225
X4.15Y-3.025
X4.15Y-3.125
X4.25Y-2.125
X4.25Y-2.225
X4.25Y-2.325
X4.25Y-2.725
X4.25Y-2.825
X4.25Y-2.925
X4.25Y-3.025
X4.25Y-3.125
X4.35Y-2.225
X4.35Y-2.325
X4.35Y-2.725
X4.35Y-2.825
X4.35Y-2.925
X4.35Y-3.025
T3
X4.25Y-2.425
X4.25Y-2.525
X4.25Y-2.625
X4.35Y-2.425
X4.35Y-2.525
X4.35Y-2.625
T0
M30
