%TF.GenerationSoftware,KiCad,Pcbnew,(6.0.4)*%
%TF.CreationDate,2022-07-16T18:09:19+02:00*%
%TF.ProjectId,AirlabMuxAtmel,4169726c-6162-44d7-9578-41746d656c2e,rev?*%
%TF.SameCoordinates,Original*%
%TF.FileFunction,Soldermask,Bot*%
%TF.FilePolarity,Negative*%
%FSLAX46Y46*%
G04 Gerber Fmt 4.6, Leading zero omitted, Abs format (unit mm)*
G04 Created by KiCad (PCBNEW (6.0.4)) date 2022-07-16 18:09:19*
%MOMM*%
%LPD*%
G01*
G04 APERTURE LIST*
%ADD10C,1.700000*%
%ADD11R,1.422400X1.422400*%
%ADD12C,1.422400*%
G04 APERTURE END LIST*
D10*
%TO.C,P1*%
X107950000Y-61595000D03*
X110490000Y-61595000D03*
X107950000Y-64135000D03*
X110490000Y-64135000D03*
X107950000Y-66675000D03*
X110490000Y-66675000D03*
%TD*%
D11*
%TO.C,IC2*%
X97790000Y-53975000D03*
D12*
X97790000Y-56515000D03*
X95250000Y-53975000D03*
X95250000Y-56515000D03*
X92710000Y-53975000D03*
X92710000Y-56515000D03*
X90170000Y-53975000D03*
X90170000Y-56515000D03*
X87630000Y-53975000D03*
X85090000Y-56515000D03*
X87630000Y-56515000D03*
X85090000Y-59055000D03*
X87630000Y-59055000D03*
X85090000Y-61595000D03*
X87630000Y-61595000D03*
X85090000Y-64135000D03*
X87630000Y-64135000D03*
X85090000Y-66675000D03*
X87630000Y-66675000D03*
X85090000Y-69215000D03*
X87630000Y-69215000D03*
X85090000Y-71755000D03*
X87630000Y-71755000D03*
X85090000Y-74295000D03*
X87630000Y-74295000D03*
X85090000Y-76835000D03*
X87630000Y-79375000D03*
X87630000Y-76835000D03*
X90170000Y-79375000D03*
X90170000Y-76835000D03*
X92710000Y-79375000D03*
X92710000Y-76835000D03*
X95250000Y-79375000D03*
X95250000Y-76835000D03*
X97790000Y-79375000D03*
X97790000Y-76835000D03*
X100330000Y-79375000D03*
X100330000Y-76835000D03*
X102870000Y-79375000D03*
X102870000Y-76835000D03*
X105410000Y-79375000D03*
X105410000Y-76835000D03*
X107950000Y-79375000D03*
X110490000Y-76835000D03*
X107950000Y-76835000D03*
X110490000Y-74295000D03*
X107950000Y-74295000D03*
X110490000Y-71755000D03*
X107950000Y-71755000D03*
X110490000Y-69215000D03*
X107950000Y-69215000D03*
X110490000Y-59055000D03*
X107950000Y-59055000D03*
X110490000Y-56515000D03*
X107950000Y-53975000D03*
X107950000Y-56515000D03*
X105410000Y-53975000D03*
X105410000Y-56515000D03*
X102870000Y-53975000D03*
X102870000Y-56515000D03*
X100330000Y-53975000D03*
X100330000Y-56515000D03*
%TD*%
M02*
