%TF.GenerationSoftware,KiCad,Pcbnew,(6.0.4)*%
%TF.CreationDate,2022-07-16T18:09:19+02:00*%
%TF.ProjectId,AirlabMuxAtmel,4169726c-6162-44d7-9578-41746d656c2e,rev?*%
%TF.SameCoordinates,Original*%
%TF.FileFunction,Legend,Top*%
%TF.FilePolarity,Positive*%
%FSLAX46Y46*%
G04 Gerber Fmt 4.6, Leading zero omitted, Abs format (unit mm)*
G04 Created by KiCad (PCBNEW (6.0.4)) date 2022-07-16 18:09:19*
%MOMM*%
%LPD*%
G01*
G04 APERTURE LIST*
%ADD10C,0.150000*%
%ADD11C,0.120000*%
%ADD12C,0.200000*%
G04 APERTURE END LIST*
D10*
%TO.C,R1*%
X110577333Y-56054380D02*
X110244000Y-55578190D01*
X110005904Y-56054380D02*
X110005904Y-55054380D01*
X110386857Y-55054380D01*
X110482095Y-55102000D01*
X110529714Y-55149619D01*
X110577333Y-55244857D01*
X110577333Y-55387714D01*
X110529714Y-55482952D01*
X110482095Y-55530571D01*
X110386857Y-55578190D01*
X110005904Y-55578190D01*
X111529714Y-56054380D02*
X110958285Y-56054380D01*
X111244000Y-56054380D02*
X111244000Y-55054380D01*
X111148761Y-55197238D01*
X111053523Y-55292476D01*
X110958285Y-55340095D01*
%TO.C,IC1*%
X96813809Y-59042380D02*
X96813809Y-58042380D01*
X97861428Y-58947142D02*
X97813809Y-58994761D01*
X97670952Y-59042380D01*
X97575714Y-59042380D01*
X97432857Y-58994761D01*
X97337619Y-58899523D01*
X97290000Y-58804285D01*
X97242380Y-58613809D01*
X97242380Y-58470952D01*
X97290000Y-58280476D01*
X97337619Y-58185238D01*
X97432857Y-58090000D01*
X97575714Y-58042380D01*
X97670952Y-58042380D01*
X97813809Y-58090000D01*
X97861428Y-58137619D01*
X98813809Y-59042380D02*
X98242380Y-59042380D01*
X98528095Y-59042380D02*
X98528095Y-58042380D01*
X98432857Y-58185238D01*
X98337619Y-58280476D01*
X98242380Y-58328095D01*
%TO.C,C3*%
X97623333Y-56769142D02*
X97575714Y-56816761D01*
X97432857Y-56864380D01*
X97337619Y-56864380D01*
X97194761Y-56816761D01*
X97099523Y-56721523D01*
X97051904Y-56626285D01*
X97004285Y-56435809D01*
X97004285Y-56292952D01*
X97051904Y-56102476D01*
X97099523Y-56007238D01*
X97194761Y-55912000D01*
X97337619Y-55864380D01*
X97432857Y-55864380D01*
X97575714Y-55912000D01*
X97623333Y-55959619D01*
X97956666Y-55864380D02*
X98575714Y-55864380D01*
X98242380Y-56245333D01*
X98385238Y-56245333D01*
X98480476Y-56292952D01*
X98528095Y-56340571D01*
X98575714Y-56435809D01*
X98575714Y-56673904D01*
X98528095Y-56769142D01*
X98480476Y-56816761D01*
X98385238Y-56864380D01*
X98099523Y-56864380D01*
X98004285Y-56816761D01*
X97956666Y-56769142D01*
%TO.C,C2*%
X99147333Y-76279142D02*
X99099714Y-76326761D01*
X98956857Y-76374380D01*
X98861619Y-76374380D01*
X98718761Y-76326761D01*
X98623523Y-76231523D01*
X98575904Y-76136285D01*
X98528285Y-75945809D01*
X98528285Y-75802952D01*
X98575904Y-75612476D01*
X98623523Y-75517238D01*
X98718761Y-75422000D01*
X98861619Y-75374380D01*
X98956857Y-75374380D01*
X99099714Y-75422000D01*
X99147333Y-75469619D01*
X99528285Y-75469619D02*
X99575904Y-75422000D01*
X99671142Y-75374380D01*
X99909238Y-75374380D01*
X100004476Y-75422000D01*
X100052095Y-75469619D01*
X100099714Y-75564857D01*
X100099714Y-75660095D01*
X100052095Y-75802952D01*
X99480666Y-76374380D01*
X100099714Y-76374380D01*
%TO.C,IC3*%
X96786379Y-61646726D02*
X96786379Y-60644293D01*
X97836547Y-61551256D02*
X97788812Y-61598991D01*
X97645607Y-61646726D01*
X97550137Y-61646726D01*
X97406933Y-61598991D01*
X97311463Y-61503521D01*
X97263728Y-61408052D01*
X97215993Y-61217112D01*
X97215993Y-61073907D01*
X97263728Y-60882968D01*
X97311463Y-60787498D01*
X97406933Y-60692028D01*
X97550137Y-60644293D01*
X97645607Y-60644293D01*
X97788812Y-60692028D01*
X97836547Y-60739763D01*
X98170691Y-60644293D02*
X98791245Y-60644293D01*
X98457101Y-61026172D01*
X98600305Y-61026172D01*
X98695775Y-61073907D01*
X98743510Y-61121642D01*
X98791245Y-61217112D01*
X98791245Y-61455786D01*
X98743510Y-61551256D01*
X98695775Y-61598991D01*
X98600305Y-61646726D01*
X98313896Y-61646726D01*
X98218426Y-61598991D01*
X98170691Y-61551256D01*
%TO.C,P1*%
X108334285Y-59687857D02*
X108334285Y-58487857D01*
X108791428Y-58487857D01*
X108905714Y-58545000D01*
X108962857Y-58602142D01*
X109020000Y-58716428D01*
X109020000Y-58887857D01*
X108962857Y-59002142D01*
X108905714Y-59059285D01*
X108791428Y-59116428D01*
X108334285Y-59116428D01*
X110162857Y-59687857D02*
X109477142Y-59687857D01*
X109820000Y-59687857D02*
X109820000Y-58487857D01*
X109705714Y-58659285D01*
X109591428Y-58773571D01*
X109477142Y-58830714D01*
%TO.C,IC2*%
X96813809Y-50602380D02*
X96813809Y-49602380D01*
X97861428Y-50507142D02*
X97813809Y-50554761D01*
X97670952Y-50602380D01*
X97575714Y-50602380D01*
X97432857Y-50554761D01*
X97337619Y-50459523D01*
X97290000Y-50364285D01*
X97242380Y-50173809D01*
X97242380Y-50030952D01*
X97290000Y-49840476D01*
X97337619Y-49745238D01*
X97432857Y-49650000D01*
X97575714Y-49602380D01*
X97670952Y-49602380D01*
X97813809Y-49650000D01*
X97861428Y-49697619D01*
X98242380Y-49697619D02*
X98290000Y-49650000D01*
X98385238Y-49602380D01*
X98623333Y-49602380D01*
X98718571Y-49650000D01*
X98766190Y-49697619D01*
X98813809Y-49792857D01*
X98813809Y-49888095D01*
X98766190Y-50030952D01*
X98194761Y-50602380D01*
X98813809Y-50602380D01*
D11*
%TO.C,R1*%
X111144000Y-54702000D02*
X110344000Y-54702000D01*
X110344000Y-53502000D02*
X111144000Y-53502000D01*
D10*
%TO.C,IC1*%
X92615000Y-71215000D02*
X92615000Y-70540000D01*
X92615000Y-60865000D02*
X92615000Y-61440000D01*
X102965000Y-60865000D02*
X102965000Y-61540000D01*
X92615000Y-61440000D02*
X91340000Y-61440000D01*
X92615000Y-60865000D02*
X93290000Y-60865000D01*
X102965000Y-71215000D02*
X102290000Y-71215000D01*
X102965000Y-60865000D02*
X102290000Y-60865000D01*
X92615000Y-71215000D02*
X93290000Y-71215000D01*
X102965000Y-71215000D02*
X102965000Y-70540000D01*
D11*
%TO.C,C3*%
X98190000Y-58512000D02*
X97390000Y-58512000D01*
X97390000Y-57312000D02*
X98190000Y-57312000D01*
%TO.C,C2*%
X99714000Y-75022000D02*
X98914000Y-75022000D01*
X98914000Y-73822000D02*
X99714000Y-73822000D01*
D12*
%TO.C,IC3*%
X94290000Y-62990000D02*
X94290000Y-63140000D01*
X101290000Y-68940000D02*
X101290000Y-69540000D01*
X94290000Y-69540000D02*
X94290000Y-68940000D01*
X101290000Y-69540000D02*
X100690000Y-69540000D01*
X101290000Y-62540000D02*
X101290000Y-63140000D01*
X94890000Y-62540000D02*
X94740000Y-62540000D01*
X94740000Y-62540000D02*
X94290000Y-62990000D01*
X94890000Y-69540000D02*
X94290000Y-69540000D01*
X100690000Y-62540000D02*
X101290000Y-62540000D01*
%TO.C,P1*%
X106720000Y-67535000D02*
X107120000Y-67935000D01*
X106820000Y-60635000D02*
X106720000Y-60735000D01*
X107020000Y-65335000D02*
X106720000Y-65635000D01*
X111420000Y-62835000D02*
X111720000Y-62535000D01*
X106720000Y-65635000D02*
X106720000Y-67535000D01*
X111720000Y-63135000D02*
X111420000Y-62835000D01*
X111420000Y-65335000D02*
X111720000Y-65035000D01*
X109220000Y-67535000D02*
X109620000Y-67935000D01*
X107020000Y-62835000D02*
X106720000Y-63135000D01*
X107120000Y-67935000D02*
X108820000Y-67935000D01*
X106720000Y-64935000D02*
X106720000Y-65035000D01*
X106720000Y-63135000D02*
X106720000Y-64235000D01*
X111720000Y-60735000D02*
X111320000Y-60335000D01*
X111720000Y-67535000D02*
X111720000Y-65635000D01*
X111720000Y-65035000D02*
X111720000Y-63135000D01*
X107120000Y-60335000D02*
X106720000Y-60735000D01*
X106720000Y-64235000D02*
X106720000Y-64135000D01*
X109620000Y-60335000D02*
X109220000Y-60735000D01*
X111720000Y-62535000D02*
X111720000Y-60735000D01*
X111720000Y-65635000D02*
X111420000Y-65335000D01*
X106720000Y-64135000D02*
X106720000Y-64935000D01*
X106720000Y-62535000D02*
X107020000Y-62835000D01*
X109620000Y-67935000D02*
X111320000Y-67935000D01*
X111320000Y-60335000D02*
X109620000Y-60335000D01*
X108820000Y-60335000D02*
X107120000Y-60335000D01*
X106720000Y-60735000D02*
X106720000Y-62535000D01*
X109220000Y-60735000D02*
X108820000Y-60335000D01*
X106720000Y-65035000D02*
X107020000Y-65335000D01*
X108820000Y-67935000D02*
X109220000Y-67535000D01*
X111320000Y-67935000D02*
X111720000Y-67535000D01*
X107102843Y-60435000D02*
G75*
G03*
X107102843Y-60435000I-282843J0D01*
G01*
X106920000Y-60435000D02*
G75*
G03*
X106920000Y-60435000I-100000J0D01*
G01*
X107220000Y-60435000D02*
G75*
G03*
X107220000Y-60435000I-400000J0D01*
G01*
D11*
%TO.C,IC2*%
X83165000Y-51050000D02*
X82165000Y-52050000D01*
X113415000Y-51050000D02*
X98790000Y-51050000D01*
X96790000Y-51050000D02*
X83165000Y-51050000D01*
X113415000Y-82300000D02*
X113415000Y-51050000D01*
X82165000Y-52050000D02*
X82165000Y-82300000D01*
X82165000Y-82300000D02*
X113415000Y-82300000D01*
%TD*%
M02*
