%TF.GenerationSoftware,KiCad,Pcbnew,(6.0.4)*%
%TF.CreationDate,2022-07-16T18:09:19+02:00*%
%TF.ProjectId,AirlabMuxAtmel,4169726c-6162-44d7-9578-41746d656c2e,rev?*%
%TF.SameCoordinates,Original*%
%TF.FileFunction,Copper,L2,Bot*%
%TF.FilePolarity,Positive*%
%FSLAX46Y46*%
G04 Gerber Fmt 4.6, Leading zero omitted, Abs format (unit mm)*
G04 Created by KiCad (PCBNEW (6.0.4)) date 2022-07-16 18:09:19*
%MOMM*%
%LPD*%
G01*
G04 APERTURE LIST*
%TA.AperFunction,ComponentPad*%
%ADD10C,1.700000*%
%TD*%
%TA.AperFunction,ComponentPad*%
%ADD11R,1.422400X1.422400*%
%TD*%
%TA.AperFunction,ComponentPad*%
%ADD12C,1.422400*%
%TD*%
%TA.AperFunction,ViaPad*%
%ADD13C,0.800000*%
%TD*%
%TA.AperFunction,ViaPad*%
%ADD14C,0.600000*%
%TD*%
%TA.AperFunction,ViaPad*%
%ADD15C,0.650000*%
%TD*%
%TA.AperFunction,Conductor*%
%ADD16C,0.250000*%
%TD*%
G04 APERTURE END LIST*
D10*
%TO.P,P1,1,P1*%
%TO.N,Net-(IC3-Pad34)*%
X107950000Y-61595000D03*
%TO.P,P1,2,P2*%
%TO.N,Net-(C2-Pad1)*%
X110490000Y-61595000D03*
%TO.P,P1,3,P3*%
%TO.N,unconnected-(P1-Pad3)*%
X107950000Y-64135000D03*
%TO.P,P1,4,P4*%
%TO.N,unconnected-(P1-Pad4)*%
X110490000Y-64135000D03*
%TO.P,P1,5,P5*%
%TO.N,Net-(IC3-Pad35)*%
X107950000Y-66675000D03*
%TO.P,P1,6,P6*%
%TO.N,Net-(C2-Pad2)*%
X110490000Y-66675000D03*
%TD*%
D11*
%TO.P,IC2,1,P5.0-ADC0*%
%TO.N,SW1*%
X97790000Y-53975000D03*
D12*
%TO.P,IC2,2,VDD*%
%TO.N,Net-(C2-Pad1)*%
X97790000Y-56515000D03*
%TO.P,IC2,3,STADC*%
%TO.N,unconnected-(IC2-Pad3)*%
X95250000Y-53975000D03*
%TO.P,IC2,4,PWM0/*%
%TO.N,RST_CC*%
X95250000Y-56515000D03*
%TO.P,IC2,5,PWM1/*%
%TO.N,CS_CC*%
X92710000Y-53975000D03*
%TO.P,IC2,6,EW/*%
%TO.N,unconnected-(IC2-Pad6)*%
X92710000Y-56515000D03*
%TO.P,IC2,7,P4.0-CMSR0*%
%TO.N,LCD_D4*%
X90170000Y-53975000D03*
%TO.P,IC2,8,P4.1-CMSR1*%
%TO.N,LCD_D5*%
X90170000Y-56515000D03*
%TO.P,IC2,9,P4.2-CMSR2*%
%TO.N,LCD_D6*%
X87630000Y-53975000D03*
%TO.P,IC2,10,P4.3-CMSR3*%
%TO.N,LCD_D7*%
X85090000Y-56515000D03*
%TO.P,IC2,11,P4.4-CMSR4*%
%TO.N,LCD_RW*%
X87630000Y-56515000D03*
%TO.P,IC2,12,P4.5-CMSR5*%
%TO.N,LCD_RS*%
X85090000Y-59055000D03*
%TO.P,IC2,13,P4.6-CMT0*%
%TO.N,LCD_E*%
X87630000Y-59055000D03*
%TO.P,IC2,14,P4.7-CMT1*%
%TO.N,STRB1*%
X85090000Y-61595000D03*
%TO.P,IC2,15,RST*%
%TO.N,unconnected-(IC2-Pad15)*%
X87630000Y-61595000D03*
%TO.P,IC2,16,CT0I-P1.0*%
%TO.N,AS0*%
X85090000Y-64135000D03*
%TO.P,IC2,17,CT1I-P1.1*%
%TO.N,AS1*%
X87630000Y-64135000D03*
%TO.P,IC2,18,CT2I-P1.2*%
%TO.N,AS2*%
X85090000Y-66675000D03*
%TO.P,IC2,19,CT3I-P1.3*%
%TO.N,AS3*%
X87630000Y-66675000D03*
%TO.P,IC2,20,T2-P1.4*%
%TO.N,AS4*%
X85090000Y-69215000D03*
%TO.P,IC2,21,RT2-P1.5*%
%TO.N,STRB2*%
X87630000Y-69215000D03*
%TO.P,IC2,22,CSL-P1.6*%
%TO.N,SCL*%
X85090000Y-71755000D03*
%TO.P,IC2,23,SDA-P1.7*%
%TO.N,SDA*%
X87630000Y-71755000D03*
%TO.P,IC2,24,P3.0-RXD*%
%TO.N,RXD*%
X85090000Y-74295000D03*
%TO.P,IC2,25,P3.1-TXD*%
%TO.N,TXD*%
X87630000Y-74295000D03*
%TO.P,IC2,26,P3.2-INT0/*%
%TO.N,DATA1*%
X85090000Y-76835000D03*
%TO.P,IC2,27,P3.3-INT1/*%
%TO.N,DATA2*%
X87630000Y-79375000D03*
%TO.P,IC2,28,P3.4-T0*%
%TO.N,CLK1*%
X87630000Y-76835000D03*
%TO.P,IC2,29,P3.5-T1*%
%TO.N,CLK2*%
X90170000Y-79375000D03*
%TO.P,IC2,30,P3.6-WR/*%
%TO.N,unconnected-(IC2-Pad30)*%
X90170000Y-76835000D03*
%TO.P,IC2,31,P3.7-RD/*%
%TO.N,unconnected-(IC2-Pad31)*%
X92710000Y-79375000D03*
%TO.P,IC2,32,NC1*%
%TO.N,unconnected-(IC2-Pad32)*%
X92710000Y-76835000D03*
%TO.P,IC2,33,NC2*%
%TO.N,unconnected-(IC2-Pad33)*%
X95250000Y-79375000D03*
%TO.P,IC2,34,XTAL2*%
%TO.N,unconnected-(IC2-Pad34)*%
X95250000Y-76835000D03*
%TO.P,IC2,35,XTAL1*%
%TO.N,unconnected-(IC2-Pad35)*%
X97790000Y-79375000D03*
%TO.P,IC2,36,VSS*%
%TO.N,Net-(C2-Pad2)*%
X97790000Y-76835000D03*
%TO.P,IC2,37,VSS@1*%
X100330000Y-79375000D03*
%TO.P,IC2,38,NC3*%
%TO.N,unconnected-(IC2-Pad38)*%
X100330000Y-76835000D03*
%TO.P,IC2,39,A08-P2.0*%
%TO.N,unconnected-(IC2-Pad39)*%
X102870000Y-79375000D03*
%TO.P,IC2,40,A09-P2.1*%
%TO.N,unconnected-(IC2-Pad40)*%
X102870000Y-76835000D03*
%TO.P,IC2,41,A10-P2.2*%
%TO.N,unconnected-(IC2-Pad41)*%
X105410000Y-79375000D03*
%TO.P,IC2,42,A11-P2.3*%
%TO.N,unconnected-(IC2-Pad42)*%
X105410000Y-76835000D03*
%TO.P,IC2,43,A12-P2.4*%
%TO.N,unconnected-(IC2-Pad43)*%
X107950000Y-79375000D03*
%TO.P,IC2,44,A13-P2.5*%
%TO.N,unconnected-(IC2-Pad44)*%
X110490000Y-76835000D03*
%TO.P,IC2,45,A14-P2.6*%
%TO.N,unconnected-(IC2-Pad45)*%
X107950000Y-76835000D03*
%TO.P,IC2,46,A15-P2.7*%
%TO.N,unconnected-(IC2-Pad46)*%
X110490000Y-74295000D03*
%TO.P,IC2,47,PSEN/*%
%TO.N,unconnected-(IC2-Pad47)*%
X107950000Y-74295000D03*
%TO.P,IC2,48,ALE-PROG/*%
%TO.N,unconnected-(IC2-Pad48)*%
X110490000Y-71755000D03*
%TO.P,IC2,49,EA/VPP*%
%TO.N,unconnected-(IC2-Pad49)*%
X107950000Y-71755000D03*
%TO.P,IC2,50,AD7-P0.7*%
%TO.N,unconnected-(IC2-Pad50)*%
X110490000Y-69215000D03*
%TO.P,IC2,51,AD6-P0.6*%
%TO.N,unconnected-(IC2-Pad51)*%
X107950000Y-69215000D03*
%TO.P,IC2,58,AVREF-*%
%TO.N,unconnected-(IC2-Pad58)*%
X110490000Y-59055000D03*
%TO.P,IC2,59,AVREF+*%
%TO.N,unconnected-(IC2-Pad59)*%
X107950000Y-59055000D03*
%TO.P,IC2,60,AVSS*%
%TO.N,unconnected-(IC2-Pad60)*%
X110490000Y-56515000D03*
%TO.P,IC2,61,AVDD*%
%TO.N,unconnected-(IC2-Pad61)*%
X107950000Y-53975000D03*
%TO.P,IC2,62,P5.7-ADC7*%
%TO.N,SW8*%
X107950000Y-56515000D03*
%TO.P,IC2,63,P5.6-ADC6*%
%TO.N,SW7*%
X105410000Y-53975000D03*
%TO.P,IC2,64,P5.5-ADC5*%
%TO.N,SW6*%
X105410000Y-56515000D03*
%TO.P,IC2,65,P5.4-ADC4*%
%TO.N,SW5*%
X102870000Y-53975000D03*
%TO.P,IC2,66,P5.3-ADC3*%
%TO.N,SW4*%
X102870000Y-56515000D03*
%TO.P,IC2,67,P5.2-ADC2*%
%TO.N,SW3*%
X100330000Y-53975000D03*
%TO.P,IC2,68,P5.1-ADC1*%
%TO.N,SW2*%
X100330000Y-56515000D03*
%TD*%
D13*
%TO.N,Net-(C2-Pad2)*%
X97790000Y-67691000D03*
X97790000Y-64389000D03*
X97790000Y-66040000D03*
X99314000Y-66040000D03*
X96266000Y-66040000D03*
X96266000Y-67691000D03*
X99314000Y-67691000D03*
X99314000Y-64389000D03*
X96266000Y-64389000D03*
%TO.N,SW3*%
X105791000Y-69977000D03*
%TO.N,SW4*%
X101727000Y-74549000D03*
D14*
%TO.N,SDA*%
X104404500Y-66050854D03*
X92202000Y-72517000D03*
%TO.N,SCL*%
X90807552Y-72387448D03*
X104398437Y-65251375D03*
%TO.N,RXD*%
X104404500Y-62786637D03*
D15*
%TO.N,TXD*%
X104371266Y-61730234D03*
D14*
X89535000Y-72263000D03*
D15*
%TO.N,Net-(C2-Pad1)*%
X99441000Y-73279000D03*
D14*
X104447206Y-63650673D03*
X88900000Y-67683475D03*
D13*
%TO.N,RST_CC*%
X89624500Y-62797200D03*
%TO.N,CS_CC*%
X91440000Y-75352060D03*
D14*
%TO.N,Net-(IC3-Pad35)*%
X103587224Y-57854317D03*
%TO.N,Net-(IC3-Pad34)*%
X104529562Y-57982458D03*
%TD*%
D16*
%TO.N,Net-(C2-Pad1)*%
X102870000Y-73279000D02*
X99441000Y-73279000D01*
X105029000Y-71120000D02*
X102870000Y-73279000D01*
X105029000Y-64232467D02*
X105029000Y-71120000D01*
X104447206Y-63650673D02*
X105029000Y-64232467D01*
X100436920Y-59161920D02*
X97790000Y-56515000D01*
X102598792Y-59161920D02*
X100436920Y-59161920D01*
X104640303Y-61080723D02*
X104517595Y-61080723D01*
X105029000Y-63068879D02*
X105029000Y-61469420D01*
X105029000Y-61469420D02*
X104640303Y-61080723D01*
X104447206Y-63650673D02*
X105029000Y-63068879D01*
X104517595Y-61080723D02*
X102598792Y-59161920D01*
%TO.N,SDA*%
X91694000Y-72009000D02*
X92202000Y-72517000D01*
X91694000Y-64009436D02*
X91694000Y-72009000D01*
X91697571Y-64005864D02*
X91694000Y-64009436D01*
X91697571Y-60702429D02*
X91697571Y-64005864D01*
X99125648Y-60393520D02*
X92006480Y-60393520D01*
X99692128Y-60960000D02*
X99125648Y-60393520D01*
X92006480Y-60393520D02*
X91697571Y-60702429D01*
X101854000Y-60960000D02*
X99692128Y-60960000D01*
X102605960Y-61711960D02*
X101854000Y-60960000D01*
X102605960Y-63363678D02*
X102605960Y-61711960D01*
X104404500Y-66050854D02*
X104314723Y-66050854D01*
X104314723Y-66050854D02*
X103773926Y-65510057D01*
X103773926Y-64531644D02*
X102605960Y-63363678D01*
X103773926Y-65510057D02*
X103773926Y-64531644D01*
%TO.N,SW3*%
X104826501Y-60631203D02*
X105478520Y-61283223D01*
X101600000Y-58166000D02*
X102146400Y-58712400D01*
X104703793Y-60631203D02*
X104826501Y-60631203D01*
X105478520Y-61283223D02*
X105478520Y-69664520D01*
X100330000Y-53975000D02*
X101600000Y-55245000D01*
X105478520Y-69664520D02*
X105791000Y-69977000D01*
X102784990Y-58712400D02*
X104703793Y-60631203D01*
X101600000Y-55245000D02*
X101600000Y-58166000D01*
X102146400Y-58712400D02*
X102784990Y-58712400D01*
%TO.N,SW4*%
X105928040Y-67447040D02*
X106515511Y-68034511D01*
X106515511Y-72046489D02*
X104013000Y-74549000D01*
X102971188Y-58262880D02*
X104889991Y-60181683D01*
X102235000Y-57912000D02*
X102585880Y-58262880D01*
X104013000Y-74549000D02*
X101727000Y-74549000D01*
X105928040Y-61097026D02*
X105928040Y-67447040D01*
X102870000Y-56515000D02*
X102235000Y-57150000D01*
X105012699Y-60181684D02*
X105928040Y-61097026D01*
X102585880Y-58262880D02*
X102971188Y-58262880D01*
X102235000Y-57150000D02*
X102235000Y-57912000D01*
X106515511Y-68034511D02*
X106515511Y-72046489D01*
X104889991Y-60181683D02*
X105012699Y-60181684D01*
%TO.N,SCL*%
X102040198Y-60510480D02*
X103055480Y-61525762D01*
X103055480Y-63177480D02*
X104398437Y-64520437D01*
X104398437Y-64520437D02*
X104398437Y-65251375D01*
X91248051Y-60389949D02*
X91694000Y-59944000D01*
X103055480Y-61525762D02*
X103055480Y-63177480D01*
X99878326Y-60510480D02*
X102040198Y-60510480D01*
X99311846Y-59944000D02*
X99878326Y-60510480D01*
X90807552Y-64260166D02*
X91248051Y-63819667D01*
X91694000Y-59944000D02*
X99311846Y-59944000D01*
X90807552Y-72387448D02*
X90807552Y-64260166D01*
X91248051Y-63819667D02*
X91248051Y-60389949D01*
%TO.N,RXD*%
X103505000Y-61339564D02*
X102226396Y-60060960D01*
X103505000Y-62357000D02*
X103505000Y-61339564D01*
X90798531Y-63522344D02*
X90159511Y-64161364D01*
X103934637Y-62786637D02*
X103505000Y-62357000D01*
X90159511Y-64161364D02*
X90159511Y-72874470D01*
X91694000Y-73660000D02*
X93980000Y-75946000D01*
X99439564Y-59436000D02*
X91186000Y-59436000D01*
X93980000Y-75946000D02*
X93980000Y-77597000D01*
X87200993Y-78105000D02*
X86360000Y-77264007D01*
X91186000Y-59436000D02*
X90798531Y-59823469D01*
X104404500Y-62786637D02*
X103934637Y-62786637D01*
X100064524Y-60060960D02*
X99439564Y-59436000D01*
X86360000Y-77264007D02*
X86360000Y-76327000D01*
X86360000Y-76327000D02*
X85090000Y-75057000D01*
X90945041Y-73660000D02*
X91694000Y-73660000D01*
X102226396Y-60060960D02*
X100064524Y-60060960D01*
X90798531Y-59823469D02*
X90798531Y-63522344D01*
X90159511Y-72874470D02*
X90945041Y-73660000D01*
X85090000Y-75057000D02*
X85090000Y-74295000D01*
X93980000Y-77597000D02*
X93472000Y-78105000D01*
X93472000Y-78105000D02*
X87200993Y-78105000D01*
%TO.N,TXD*%
X100250722Y-59611440D02*
X99567282Y-58928000D01*
X104371266Y-61570112D02*
X102412594Y-59611440D01*
X90349011Y-59510989D02*
X90349011Y-63336146D01*
X99567282Y-58928000D02*
X90932000Y-58928000D01*
X89535000Y-64150157D02*
X89535000Y-72263000D01*
X104371266Y-61730234D02*
X104371266Y-61570112D01*
X90932000Y-58928000D02*
X90349011Y-59510989D01*
X102412594Y-59611440D02*
X100250722Y-59611440D01*
X90349011Y-63336146D02*
X89535000Y-64150157D01*
%TO.N,Net-(C2-Pad2)*%
X110490000Y-66675000D02*
X109220000Y-67945000D01*
X109220000Y-77470000D02*
X108585000Y-78105000D01*
X101600000Y-78105000D02*
X100330000Y-79375000D01*
X109220000Y-67945000D02*
X109220000Y-77470000D01*
X108585000Y-78105000D02*
X101600000Y-78105000D01*
%TO.N,Net-(C2-Pad1)*%
X88900000Y-59182000D02*
X90297000Y-57785000D01*
X90297000Y-57785000D02*
X93599000Y-57785000D01*
X94297500Y-55245000D02*
X96520000Y-55245000D01*
X93980000Y-55562500D02*
X94297500Y-55245000D01*
X93599000Y-57785000D02*
X93980000Y-57404000D01*
X96520000Y-55245000D02*
X97790000Y-56515000D01*
X88900000Y-67683475D02*
X88900000Y-59182000D01*
X93980000Y-57404000D02*
X93980000Y-55562500D01*
%TO.N,RST_CC*%
X90551000Y-58420000D02*
X94107000Y-58420000D01*
X89624500Y-62797200D02*
X89349520Y-62522220D01*
X95250000Y-57277000D02*
X95250000Y-56515000D01*
X94107000Y-58420000D02*
X95250000Y-57277000D01*
X89349520Y-62522220D02*
X89349520Y-59621480D01*
X89349520Y-59621480D02*
X90551000Y-58420000D01*
%TO.N,CS_CC*%
X86741000Y-75565000D02*
X86360000Y-75184000D01*
X86360000Y-75184000D02*
X86360000Y-55626000D01*
X86741000Y-55245000D02*
X91440000Y-55245000D01*
X88900000Y-75565000D02*
X86741000Y-75565000D01*
X91440000Y-75311000D02*
X89154000Y-75311000D01*
X89154000Y-75311000D02*
X88900000Y-75565000D01*
X91440000Y-75352060D02*
X91440000Y-75311000D01*
X91440000Y-55245000D02*
X92710000Y-53975000D01*
X86360000Y-55626000D02*
X86741000Y-55245000D01*
%TO.N,Net-(IC3-Pad35)*%
X106426000Y-65151000D02*
X107950000Y-66675000D01*
X103587224Y-57854317D02*
X103587224Y-58243198D01*
X106426000Y-60959265D02*
X106426000Y-65151000D01*
X103587224Y-58243198D02*
X105076190Y-59732164D01*
X105198900Y-59732165D02*
X106426000Y-60959265D01*
X105076190Y-59732164D02*
X105198900Y-59732165D01*
%TO.N,Net-(IC3-Pad34)*%
X104529562Y-57982458D02*
X104529562Y-58174562D01*
X104529562Y-58174562D02*
X107950000Y-61595000D01*
X107442000Y-61595000D02*
X107950000Y-61595000D01*
X104529562Y-57982458D02*
X104500020Y-58012000D01*
%TD*%
M02*
